<svg xmlns:dc="http://purl.org/dc/elements/1.1/" xmlns:cc="http://creativecommons.org/ns#" xmlns:rdf="http://www.w3.org/1999/02/22-rdf-syntax-ns#" xmlns:svg="http://www.w3.org/2000/svg" xmlns="http://www.w3.org/2000/svg" xmlns:sodipodi="http://sodipodi.sourceforge.net/DTD/sodipodi-0.dtd" xmlns:inkscape="http://www.inkscape.org/namespaces/inkscape" width="58pt" height="93pt" viewBox="0 0 58 93" version="1.1" id="svg4355" inkscape:version="0.91 r13725" sodipodi:docname="RN-52_Breakout_v11_noss_edits.GTP.svg">
  <metadata id="metadata4534">
    <rdf:RDF>
      <cc:Work rdf:about="">
        <dc:format>image/svg+xml</dc:format>
        <dc:type rdf:resource="http://purl.org/dc/dcmitype/StillImage"/>
      </cc:Work>
    </rdf:RDF>
  </metadata>
  <defs id="defs4532"/>
  <sodipodi:namedview pagecolor="#ffffff" bordercolor="#666666" borderopacity="1" objecttolerance="10" gridtolerance="10" guidetolerance="10" inkscape:pageopacity="0" inkscape:pageshadow="2" inkscape:window-width="1600" inkscape:window-height="1160" id="namedview4530" showgrid="false" inkscape:zoom="11.605675" inkscape:cx="32.342454" inkscape:cy="72.044336" inkscape:window-x="0" inkscape:window-y="0" inkscape:window-maximized="0" inkscape:current-layer="svg4355"/>
  <path inkscape:connector-curvature="0" id="path4358" d="m 12.9548729089,60.3728460911 2.3862541822,0 0,-1.9917851822000001 -2.3862541822,0 z m 0,0" style="fill:#7373de;fill-opacity:1;fill-rule:evenodd;stroke:none"/>
  <path inkscape:connector-curvature="0" id="path4360" d="m 12.9548729089,56.9705020911 2.3862541822,0 0,-1.9917851822000001 -2.3862541822,0 z m 0,0" style="fill:#7373de;fill-opacity:1;fill-rule:evenodd;stroke:none"/>
  <path inkscape:connector-curvature="0" id="path4362" d="m 12.9548729089,53.5720650911 2.3862541822,0 0,-1.9917861821999998 -2.3862541822,0 z m 0,0" style="fill:#7373de;fill-opacity:1;fill-rule:evenodd;stroke:none"/>
  <path inkscape:connector-curvature="0" id="path4364" d="m 12.9548729089,50.1697210911 2.3862541822,0 0,-1.9917861821999998 -2.3862541822,0 z m 0,0" style="fill:#7373de;fill-opacity:1;fill-rule:evenodd;stroke:none"/>
  <path inkscape:connector-curvature="0" id="path4366" d="m 12.9548729089,46.7673770911 2.3862541822,0 0,-1.9917851822000001 -2.3862541822,0 z m 0,0" style="fill:#7373de;fill-opacity:1;fill-rule:evenodd;stroke:none"/>
  <path inkscape:connector-curvature="0" id="path4368" d="m 12.9548729089,43.3650330911 2.3862541822,0 0,-1.9917851822000001 -2.3862541822,0 z m 0,0" style="fill:#7373de;fill-opacity:1;fill-rule:evenodd;stroke:none"/>
  <path inkscape:connector-curvature="0" id="path4370" d="m 12.9548729089,39.9626890911 2.3862541822,0 0,-1.9917851822000001 -2.3862541822,0 z m 0,0" style="fill:#7373de;fill-opacity:1;fill-rule:evenodd;stroke:none"/>
  <path inkscape:connector-curvature="0" id="path4372" d="m 12.9548729089,36.5642520911 2.3862541822,0 0,-1.9917851822000001 -2.3862541822,0 z m 0,0" style="fill:#7373de;fill-opacity:1;fill-rule:evenodd;stroke:none"/>
  <path inkscape:connector-curvature="0" id="path4374" d="m 12.9548729089,33.1619080911 2.3862541822,0 0,-1.9917851822000001 -2.3862541822,0 z m 0,0" style="fill:#7373de;fill-opacity:1;fill-rule:evenodd;stroke:none"/>
  <path inkscape:connector-curvature="0" id="path4376" d="m 12.9548729089,29.759565091099997 2.3862541822,0 0,-1.9917861821999998 -2.3862541822,0 z m 0,0" style="fill:#7373de;fill-opacity:1;fill-rule:evenodd;stroke:none"/>
  <path inkscape:connector-curvature="0" id="path4378" d="m 12.9548729089,26.357221091099998 2.3862541822,0 0,-1.9917861821999998 -2.3862541822,0 z m 0,0" style="fill:#7373de;fill-opacity:1;fill-rule:evenodd;stroke:none"/>
  <path inkscape:connector-curvature="0" id="path4380" d="m 12.9548729089,22.9548770911 2.3862541822,0 0,-1.9917851822000001 -2.3862541822,0 z m 0,0" style="fill:#7373de;fill-opacity:1;fill-rule:evenodd;stroke:none"/>
  <path inkscape:connector-curvature="0" id="path4382" d="m 12.9548729089,19.5564390911 2.3862541822,0 0,-1.9917851822000001 -2.3862541822,0 z m 0,0" style="fill:#7373de;fill-opacity:1;fill-rule:evenodd;stroke:none"/>
  <path inkscape:connector-curvature="0" id="path4384" d="m 12.9548729089,16.154096091099998 2.3862541822,0 0,-1.9917851822000001 -2.3862541822,0 z m 0,0" style="fill:#7373de;fill-opacity:1;fill-rule:evenodd;stroke:none"/>
  <path inkscape:connector-curvature="0" id="path4386" d="m 12.9548729089,12.7517520911 2.3862541822,0 0,-1.9917851822000001 -2.3862541822,0 z m 0,0" style="fill:#7373de;fill-opacity:1;fill-rule:evenodd;stroke:none"/>
  <path inkscape:connector-curvature="0" id="path4388" d="m 12.9548729089,9.3494080911 2.3862541822,0 0,-1.9917851822000001 -2.3862541822,0 z m 0,0" style="fill:#7373de;fill-opacity:1;fill-rule:evenodd;stroke:none"/>
  <path inkscape:connector-curvature="0" id="path4390" d="m 12.9548729089,5.9470650911 2.3862541822,0 0,-1.9917861821999998 -2.3862541822,0 z m 0,0" style="fill:#7373de;fill-opacity:1;fill-rule:evenodd;stroke:none"/>
  <path inkscape:connector-curvature="0" id="path4392" d="m 50.3948729089,5.9470650911 2.3862541822,0 0,-1.9917861821999998 -2.3862541822,0 z m 0,0" style="fill:#7373de;fill-opacity:1;fill-rule:evenodd;stroke:none"/>
  <path inkscape:connector-curvature="0" id="path4394" d="m 50.3948729089,9.3494080911 2.3862541822,0 0,-1.9917851822000001 -2.3862541822,0 z m 0,0" style="fill:#7373de;fill-opacity:1;fill-rule:evenodd;stroke:none"/>
  <path inkscape:connector-curvature="0" id="path4396" d="m 50.3948729089,12.7517520911 2.3862541822,0 0,-1.9917851822000001 -2.3862541822,0 z m 0,0" style="fill:#7373de;fill-opacity:1;fill-rule:evenodd;stroke:none"/>
  <path inkscape:connector-curvature="0" id="path4398" d="m 50.3948729089,16.154096091099998 2.3862541822,0 0,-1.9917851822000001 -2.3862541822,0 z m 0,0" style="fill:#7373de;fill-opacity:1;fill-rule:evenodd;stroke:none"/>
  <path inkscape:connector-curvature="0" id="path4400" d="m 50.3948729089,19.5564390911 2.3862541822,0 0,-1.9917851822000001 -2.3862541822,0 z m 0,0" style="fill:#7373de;fill-opacity:1;fill-rule:evenodd;stroke:none"/>
  <path inkscape:connector-curvature="0" id="path4402" d="m 50.3948729089,22.9548770911 2.3862541822,0 0,-1.9917851822000001 -2.3862541822,0 z m 0,0" style="fill:#7373de;fill-opacity:1;fill-rule:evenodd;stroke:none"/>
  <path inkscape:connector-curvature="0" id="path4404" d="m 50.3948729089,26.357221091099998 2.3862541822,0 0,-1.9917861821999998 -2.3862541822,0 z m 0,0" style="fill:#7373de;fill-opacity:1;fill-rule:evenodd;stroke:none"/>
  <path inkscape:connector-curvature="0" id="path4406" d="m 50.3948729089,29.759565091099997 2.3862541822,0 0,-1.9917861821999998 -2.3862541822,0 z m 0,0" style="fill:#7373de;fill-opacity:1;fill-rule:evenodd;stroke:none"/>
  <path inkscape:connector-curvature="0" id="path4408" d="m 50.3948729089,33.1619080911 2.3862541822,0 0,-1.9917851822000001 -2.3862541822,0 z m 0,0" style="fill:#7373de;fill-opacity:1;fill-rule:evenodd;stroke:none"/>
  <path inkscape:connector-curvature="0" id="path4410" d="m 50.3948729089,36.5642520911 2.3862541822,0 0,-1.9917851822000001 -2.3862541822,0 z m 0,0" style="fill:#7373de;fill-opacity:1;fill-rule:evenodd;stroke:none"/>
  <path inkscape:connector-curvature="0" id="path4412" d="m 50.3948729089,39.9626890911 2.3862541822,0 0,-1.9917851822000001 -2.3862541822,0 z m 0,0" style="fill:#7373de;fill-opacity:1;fill-rule:evenodd;stroke:none"/>
  <path inkscape:connector-curvature="0" id="path4414" d="m 50.3948729089,43.3650330911 2.3862541822,0 0,-1.9917851822000001 -2.3862541822,0 z m 0,0" style="fill:#7373de;fill-opacity:1;fill-rule:evenodd;stroke:none"/>
  <path inkscape:connector-curvature="0" id="path4416" d="m 50.3948729089,46.7673770911 2.3862541822,0 0,-1.9917851822000001 -2.3862541822,0 z m 0,0" style="fill:#7373de;fill-opacity:1;fill-rule:evenodd;stroke:none"/>
  <path inkscape:connector-curvature="0" id="path4418" d="m 50.3948729089,50.1697210911 2.3862541822,0 0,-1.9917861821999998 -2.3862541822,0 z m 0,0" style="fill:#7373de;fill-opacity:1;fill-rule:evenodd;stroke:none"/>
  <path inkscape:connector-curvature="0" id="path4420" d="m 50.3948729089,53.5720650911 2.3862541822,0 0,-1.9917861821999998 -2.3862541822,0 z m 0,0" style="fill:#7373de;fill-opacity:1;fill-rule:evenodd;stroke:none"/>
  <path inkscape:connector-curvature="0" id="path4422" d="m 50.3948729089,56.9705020911 2.3862541822,0 0,-1.9917851822000001 -2.3862541822,0 z m 0,0" style="fill:#7373de;fill-opacity:1;fill-rule:evenodd;stroke:none"/>
  <path inkscape:connector-curvature="0" id="path4424" d="m 50.3948729089,60.3728460911 2.3862541822,0 0,-1.9917851822000001 -2.3862541822,0 z m 0,0" style="fill:#7373de;fill-opacity:1;fill-rule:evenodd;stroke:none"/>
  <path inkscape:connector-curvature="0" id="path4426" d="m 48.5919979089,65.6922260911 1.9917851822000001,0 0,-2.4333531822 -1.9917851822000001,0 z m 0,0" style="fill:#7373de;fill-opacity:1;fill-rule:evenodd;stroke:none"/>
  <path inkscape:connector-curvature="0" id="path4428" d="m 43.7755919089,65.7171270911 1.9917851822000001,0 0,-2.4333531822 -1.9917851822000001,0 z m 0,0" style="fill:#7373de;fill-opacity:1;fill-rule:evenodd;stroke:none"/>
  <path inkscape:connector-curvature="0" id="path4430" d="m 40.3732479089,65.7171270911 1.9917851822000001,0 0,-2.4333531822 -1.9917851822000001,0 z m 0,0" style="fill:#7373de;fill-opacity:1;fill-rule:evenodd;stroke:none"/>
  <path inkscape:connector-curvature="0" id="path4432" d="m 36.9709039089,65.7171270911 1.9917851822000001,0 0,-2.4333531822 -1.9917851822000001,0 z m 0,0" style="fill:#7373de;fill-opacity:1;fill-rule:evenodd;stroke:none"/>
  <path inkscape:connector-curvature="0" id="path4434" d="m 33.5685609089,65.7171270911 1.9917851822000001,0 0,-2.4333531822 -1.9917851822000001,0 z m 0,0" style="fill:#7373de;fill-opacity:1;fill-rule:evenodd;stroke:none"/>
  <path inkscape:connector-curvature="0" id="path4436" d="m 30.1701229089,65.7171270911 1.9917851822000001,0 0,-2.4333531822 -1.9917851822000001,0 z m 0,0" style="fill:#7373de;fill-opacity:1;fill-rule:evenodd;stroke:none"/>
  <path inkscape:connector-curvature="0" id="path4438" d="m 26.767778908900002,65.7171270911 1.9917861821999998,0 0,-2.4333531822 -1.9917861821999998,0 z m 0,0" style="fill:#7373de;fill-opacity:1;fill-rule:evenodd;stroke:none"/>
  <path inkscape:connector-curvature="0" id="path4440" d="m 23.365434908900003,65.7171270911 1.9917861821999998,0 0,-2.4333531822 -1.9917861821999998,0 z m 0,0" style="fill:#7373de;fill-opacity:1;fill-rule:evenodd;stroke:none"/>
  <path inkscape:connector-curvature="0" id="path4442" d="m 19.9630919089,65.7171270911 1.9917851822000001,0 0,-2.4333531822 -1.9917851822000001,0 z m 0,0" style="fill:#7373de;fill-opacity:1;fill-rule:evenodd;stroke:none"/>
  <path inkscape:connector-curvature="0" id="path4444" d="m 15.1466849089,65.7171270911 1.9917861821999998,0 0,-2.4333531822 -1.9917861821999998,0 z m 0,0" style="fill:#7373de;fill-opacity:1;fill-rule:evenodd;stroke:none"/>
  <path inkscape:connector-curvature="0" id="path4446" d="m 23.226534,7.22267 0,-1.70316" style="fill:none;stroke:#7373de;stroke-width:1.70063996;stroke-linecap:round;stroke-linejoin:miter;stroke-miterlimit:10;stroke-opacity:1"/>
  <path inkscape:connector-curvature="0" id="path4448" d="m 23.226534,7.22267 -0.56664,0" style="fill:none;stroke:#7373de;stroke-width:1.70063996;stroke-linecap:round;stroke-linejoin:miter;stroke-miterlimit:10;stroke-opacity:1"/>
  <path inkscape:connector-curvature="0" id="path4450" d="m 22.660182,7.22267 0,-1.70316" style="fill:none;stroke:#7373de;stroke-width:1.70063996;stroke-linecap:round;stroke-linejoin:miter;stroke-miterlimit:10;stroke-opacity:1"/>
  <path inkscape:connector-curvature="0" id="path4452" d="m 22.660182,5.51951 0.56664,0" style="fill:none;stroke:#7373de;stroke-width:1.70063996;stroke-linecap:round;stroke-linejoin:miter;stroke-miterlimit:10;stroke-opacity:1"/>
  <path inkscape:connector-curvature="0" id="path4454" d="m 23.226534,5.523398 -0.56664,0" style="fill:none;stroke:#7373de;stroke-width:1.70063996;stroke-linecap:round;stroke-linejoin:miter;stroke-miterlimit:10;stroke-opacity:1"/>
  <path inkscape:connector-curvature="0" id="path4456" d="m 27.195318,5.51951 0,1.70316" style="fill:none;stroke:#7373de;stroke-width:1.70063996;stroke-linecap:round;stroke-linejoin:miter;stroke-miterlimit:10;stroke-opacity:1"/>
  <path inkscape:connector-curvature="0" id="path4458" d="m 27.195318,7.22267 -0.56664,0" style="fill:none;stroke:#7373de;stroke-width:1.70063996;stroke-linecap:round;stroke-linejoin:miter;stroke-miterlimit:10;stroke-opacity:1"/>
  <path inkscape:connector-curvature="0" id="path4460" d="m 26.628894,7.22267 0,-1.70316" style="fill:none;stroke:#7373de;stroke-width:1.70063996;stroke-linecap:round;stroke-linejoin:miter;stroke-miterlimit:10;stroke-opacity:1"/>
  <path inkscape:connector-curvature="0" id="path4462" d="m 26.628894,5.51951 0.56664,0" style="fill:none;stroke:#7373de;stroke-width:1.70063996;stroke-linecap:round;stroke-linejoin:miter;stroke-miterlimit:10;stroke-opacity:1"/>
  <path inkscape:connector-curvature="0" id="path4464" d="m 27.195318,5.523398 -0.56664,0" style="fill:none;stroke:#7373de;stroke-width:1.70063996;stroke-linecap:round;stroke-linejoin:miter;stroke-miterlimit:10;stroke-opacity:1"/>
  <path inkscape:connector-curvature="0" id="path4466" d="m 31.16403,5.51951 0,1.70316" style="fill:none;stroke:#7373de;stroke-width:1.70063996;stroke-linecap:round;stroke-linejoin:miter;stroke-miterlimit:10;stroke-opacity:1"/>
  <path inkscape:connector-curvature="0" id="path4468" d="m 31.16403,7.22267 -0.56664,0" style="fill:none;stroke:#7373de;stroke-width:1.70063996;stroke-linecap:round;stroke-linejoin:miter;stroke-miterlimit:10;stroke-opacity:1"/>
  <path inkscape:connector-curvature="0" id="path4470" d="m 30.597678,7.22267 0,-1.70316" style="fill:none;stroke:#7373de;stroke-width:1.70063996;stroke-linecap:round;stroke-linejoin:miter;stroke-miterlimit:10;stroke-opacity:1"/>
  <path inkscape:connector-curvature="0" id="path4472" d="m 30.597678,5.51951 0.56664,0" style="fill:none;stroke:#7373de;stroke-width:1.70063996;stroke-linecap:round;stroke-linejoin:miter;stroke-miterlimit:10;stroke-opacity:1"/>
  <path inkscape:connector-curvature="0" id="path4474" d="m 31.16403,5.523398 -0.56664,0" style="fill:none;stroke:#7373de;stroke-width:1.70063996;stroke-linecap:round;stroke-linejoin:miter;stroke-miterlimit:10;stroke-opacity:1"/>
  <path inkscape:connector-curvature="0" id="path4476" d="m 35.132814,5.51951 0,1.70316" style="fill:none;stroke:#7373de;stroke-width:1.70063996;stroke-linecap:round;stroke-linejoin:miter;stroke-miterlimit:10;stroke-opacity:1"/>
  <path inkscape:connector-curvature="0" id="path4478" d="m 35.132814,7.22267 -0.56664,0" style="fill:none;stroke:#7373de;stroke-width:1.70063996;stroke-linecap:round;stroke-linejoin:miter;stroke-miterlimit:10;stroke-opacity:1"/>
  <path inkscape:connector-curvature="0" id="path4480" d="m 34.56639,7.22267 0,-1.70316" style="fill:none;stroke:#7373de;stroke-width:1.70063996;stroke-linecap:round;stroke-linejoin:miter;stroke-miterlimit:10;stroke-opacity:1"/>
  <path inkscape:connector-curvature="0" id="path4482" d="m 34.56639,5.51951 0.56664,0" style="fill:none;stroke:#7373de;stroke-width:1.70063996;stroke-linecap:round;stroke-linejoin:miter;stroke-miterlimit:10;stroke-opacity:1"/>
  <path inkscape:connector-curvature="0" id="path4484" d="m 35.132814,5.523398 -0.56664,0" style="fill:none;stroke:#7373de;stroke-width:1.70063996;stroke-linecap:round;stroke-linejoin:miter;stroke-miterlimit:10;stroke-opacity:1"/>
  <path inkscape:connector-curvature="0" id="path4486" d="m 39.101598,5.51951 0,1.70316" style="fill:none;stroke:#7373de;stroke-width:1.70063996;stroke-linecap:round;stroke-linejoin:miter;stroke-miterlimit:10;stroke-opacity:1"/>
  <path inkscape:connector-curvature="0" id="path4488" d="m 39.101598,7.22267 -0.56664,0" style="fill:none;stroke:#7373de;stroke-width:1.70063996;stroke-linecap:round;stroke-linejoin:miter;stroke-miterlimit:10;stroke-opacity:1"/>
  <path inkscape:connector-curvature="0" id="path4490" d="m 38.535174,7.22267 0,-1.70316" style="fill:none;stroke:#7373de;stroke-width:1.70063996;stroke-linecap:round;stroke-linejoin:miter;stroke-miterlimit:10;stroke-opacity:1"/>
  <path inkscape:connector-curvature="0" id="path4492" d="m 38.535174,5.51951 0.56664,0" style="fill:none;stroke:#7373de;stroke-width:1.70063996;stroke-linecap:round;stroke-linejoin:miter;stroke-miterlimit:10;stroke-opacity:1"/>
  <path inkscape:connector-curvature="0" id="path4494" d="m 39.101598,5.523398 -0.56664,0" style="fill:none;stroke:#7373de;stroke-width:1.70063996;stroke-linecap:round;stroke-linejoin:miter;stroke-miterlimit:10;stroke-opacity:1"/>
  <path inkscape:connector-curvature="0" id="path4496" d="m 43.07031,5.51951 0,1.70316" style="fill:none;stroke:#7373de;stroke-width:1.70063996;stroke-linecap:round;stroke-linejoin:miter;stroke-miterlimit:10;stroke-opacity:1"/>
  <path inkscape:connector-curvature="0" id="path4498" d="m 43.07031,7.22267 -0.56664,0" style="fill:none;stroke:#7373de;stroke-width:1.70063996;stroke-linecap:round;stroke-linejoin:miter;stroke-miterlimit:10;stroke-opacity:1"/>
  <path inkscape:connector-curvature="0" id="path4500" d="m 42.503886,7.22267 0,-1.70316" style="fill:none;stroke:#7373de;stroke-width:1.70063996;stroke-linecap:round;stroke-linejoin:miter;stroke-miterlimit:10;stroke-opacity:1"/>
  <path inkscape:connector-curvature="0" id="path4502" d="m 42.503886,5.51951 0.56664,0" style="fill:none;stroke:#7373de;stroke-width:1.70063996;stroke-linecap:round;stroke-linejoin:miter;stroke-miterlimit:10;stroke-opacity:1"/>
  <path inkscape:connector-curvature="0" id="path4504" d="m 43.07031,5.523398 -0.56664,0" style="fill:none;stroke:#7373de;stroke-width:1.70063996;stroke-linecap:round;stroke-linejoin:miter;stroke-miterlimit:10;stroke-opacity:1"/>
  <path inkscape:connector-curvature="0" id="path4506" d="m 53.4709039089,77.5642520911 1.9917851822000001,0 0,-1.9917851822000001 -1.9917851822000001,0 z m 0,0" style="fill:#7373de;fill-opacity:1;fill-rule:evenodd;stroke:none"/>
  <path inkscape:connector-curvature="0" id="path4508" d="m 53.4709039089,81.8181580911 1.9917851822000001,0 0,-1.9917851822000001 -1.9917851822000001,0 z m 0,0" style="fill:#7373de;fill-opacity:1;fill-rule:evenodd;stroke:none"/>
  <path inkscape:connector-curvature="0" id="path4510" d="m 10.2716849089,81.8181580911 1.9917861821999998,0 0,-1.9917851822000001 -1.9917861821999998,0 z m 0,0" style="fill:#7373de;fill-opacity:1;fill-rule:evenodd;stroke:none"/>
  <path inkscape:connector-curvature="0" id="path4512" d="m 10.2716849089,77.5642520911 1.9917861821999998,0 0,-1.9917851822000001 -1.9917861821999998,0 z m 0,0" style="fill:#7373de;fill-opacity:1;fill-rule:evenodd;stroke:none"/>
  <path inkscape:connector-curvature="0" id="path4514" d="m 17.1857479089,77.7087830911 2.5581911822,0 0,-2.8394411822 -2.5581911822,0 z m 0,0" style="fill:#7373de;fill-opacity:1;fill-rule:evenodd;stroke:none"/>
  <path inkscape:connector-curvature="0" id="path4516" d="m 17.1857479089,82.5251890911 2.5581911822,0 0,-2.8394411822 -2.5581911822,0 z m 0,0" style="fill:#7373de;fill-opacity:1;fill-rule:evenodd;stroke:none"/>
  <path inkscape:connector-curvature="0" id="path4518" d="m 45.9865289089,82.5251890911 2.5581921822,0 0,-2.8394411822 -2.5581921822,0 z m 0,0" style="fill:#7373de;fill-opacity:1;fill-rule:evenodd;stroke:none"/>
  <path inkscape:connector-curvature="0" id="path4520" d="m 45.9865289089,77.7087830911 2.5581921822,0 0,-2.8394411822 -2.5581921822,0 z m 0,0" style="fill:#7373de;fill-opacity:1;fill-rule:evenodd;stroke:none"/>
  <path inkscape:connector-curvature="0" id="path4522" d="m 2.7873109089,11.9665960911 2.5581911822,0 0,-2.8394421822 -2.5581911822,0 z m 0,0" style="fill:#7373de;fill-opacity:1;fill-rule:evenodd;stroke:none"/>
  <path inkscape:connector-curvature="0" id="path4524" d="m 2.7873109089,7.1462830911 2.5581911822,0 0,-2.8394411822 -2.5581911822,0 z m 0,0" style="fill:#7373de;fill-opacity:1;fill-rule:evenodd;stroke:none"/>
  <path inkscape:connector-curvature="0" id="path4526" d="m 37.6740289089,88.6150330911 2.8394421822,0 0,-2.5581911822 -2.8394421822,0 z m 0,0" style="fill:#7373de;fill-opacity:1;fill-rule:evenodd;stroke:none"/>
  <path inkscape:connector-curvature="0" id="path4528" d="m 42.4943419089,88.6150330911 2.8394411822,0 0,-2.5581911822 -2.8394411822,0 z m 0,0" style="fill:#7373de;fill-opacity:1;fill-rule:evenodd;stroke:none"/>
</svg>