<?xml version="1.0" encoding="UTF-8" standalone="no"?>
<svg
   xmlns:dc="http://purl.org/dc/elements/1.1/"
   xmlns:cc="http://creativecommons.org/ns#"
   xmlns:rdf="http://www.w3.org/1999/02/22-rdf-syntax-ns#"
   xmlns:svg="http://www.w3.org/2000/svg"
   xmlns="http://www.w3.org/2000/svg"
   xmlns:sodipodi="http://sodipodi.sourceforge.net/DTD/sodipodi-0.dtd"
   xmlns:inkscape="http://www.inkscape.org/namespaces/inkscape"
   width="58pt"
   height="93pt"
   viewBox="0 0 58 93"
   version="1.1"
   id="svg4355"
   inkscape:version="0.91 r13725"
   sodipodi:docname="RN-52_Breakout_v11_noss_edits.GTP.svg">
  <metadata
     id="metadata4534">
    <rdf:RDF>
      <cc:Work
         rdf:about="">
        <dc:format>image/svg+xml</dc:format>
        <dc:type
           rdf:resource="http://purl.org/dc/dcmitype/StillImage" />
      </cc:Work>
    </rdf:RDF>
  </metadata>
  <defs
     id="defs4532" />
  <sodipodi:namedview
     pagecolor="#ffffff"
     bordercolor="#666666"
     borderopacity="1"
     objecttolerance="10"
     gridtolerance="10"
     guidetolerance="10"
     inkscape:pageopacity="0"
     inkscape:pageshadow="2"
     inkscape:window-width="1600"
     inkscape:window-height="1160"
     id="namedview4530"
     showgrid="false"
     inkscape:zoom="11.605675"
     inkscape:cx="32.342454"
     inkscape:cy="72.044336"
     inkscape:window-x="0"
     inkscape:window-y="0"
     inkscape:window-maximized="0"
     inkscape:current-layer="svg4355" />
  <path
     inkscape:connector-curvature="0"
     id="path4358"
     d="m 12.816,60.511719 2.664,0 0,-2.269531 -2.664,0 z m 0,0"
     style="fill:#7373de;fill-opacity:1;fill-rule:evenodd;stroke:none" />
  <path
     inkscape:connector-curvature="0"
     id="path4360"
     d="m 12.816,57.109375 2.664,0 0,-2.269531 -2.664,0 z m 0,0"
     style="fill:#7373de;fill-opacity:1;fill-rule:evenodd;stroke:none" />
  <path
     inkscape:connector-curvature="0"
     id="path4362"
     d="m 12.816,53.710938 2.664,0 0,-2.269532 -2.664,0 z m 0,0"
     style="fill:#7373de;fill-opacity:1;fill-rule:evenodd;stroke:none" />
  <path
     inkscape:connector-curvature="0"
     id="path4364"
     d="m 12.816,50.308594 2.664,0 0,-2.269532 -2.664,0 z m 0,0"
     style="fill:#7373de;fill-opacity:1;fill-rule:evenodd;stroke:none" />
  <path
     inkscape:connector-curvature="0"
     id="path4366"
     d="m 12.816,46.90625 2.664,0 0,-2.269531 -2.664,0 z m 0,0"
     style="fill:#7373de;fill-opacity:1;fill-rule:evenodd;stroke:none" />
  <path
     inkscape:connector-curvature="0"
     id="path4368"
     d="m 12.816,43.503906 2.664,0 0,-2.269531 -2.664,0 z m 0,0"
     style="fill:#7373de;fill-opacity:1;fill-rule:evenodd;stroke:none" />
  <path
     inkscape:connector-curvature="0"
     id="path4370"
     d="m 12.816,40.101562 2.664,0 0,-2.269531 -2.664,0 z m 0,0"
     style="fill:#7373de;fill-opacity:1;fill-rule:evenodd;stroke:none" />
  <path
     inkscape:connector-curvature="0"
     id="path4372"
     d="m 12.816,36.703125 2.664,0 0,-2.269531 -2.664,0 z m 0,0"
     style="fill:#7373de;fill-opacity:1;fill-rule:evenodd;stroke:none" />
  <path
     inkscape:connector-curvature="0"
     id="path4374"
     d="m 12.816,33.300781 2.664,0 0,-2.269531 -2.664,0 z m 0,0"
     style="fill:#7373de;fill-opacity:1;fill-rule:evenodd;stroke:none" />
  <path
     inkscape:connector-curvature="0"
     id="path4376"
     d="m 12.816,29.898438 2.664,0 0,-2.269532 -2.664,0 z m 0,0"
     style="fill:#7373de;fill-opacity:1;fill-rule:evenodd;stroke:none" />
  <path
     inkscape:connector-curvature="0"
     id="path4378"
     d="m 12.816,26.496094 2.664,0 0,-2.269532 -2.664,0 z m 0,0"
     style="fill:#7373de;fill-opacity:1;fill-rule:evenodd;stroke:none" />
  <path
     inkscape:connector-curvature="0"
     id="path4380"
     d="m 12.816,23.09375 2.664,0 0,-2.269531 -2.664,0 z m 0,0"
     style="fill:#7373de;fill-opacity:1;fill-rule:evenodd;stroke:none" />
  <path
     inkscape:connector-curvature="0"
     id="path4382"
     d="m 12.816,19.695312 2.664,0 0,-2.269531 -2.664,0 z m 0,0"
     style="fill:#7373de;fill-opacity:1;fill-rule:evenodd;stroke:none" />
  <path
     inkscape:connector-curvature="0"
     id="path4384"
     d="m 12.816,16.292969 2.664,0 0,-2.269531 -2.664,0 z m 0,0"
     style="fill:#7373de;fill-opacity:1;fill-rule:evenodd;stroke:none" />
  <path
     inkscape:connector-curvature="0"
     id="path4386"
     d="m 12.816,12.890625 2.664,0 0,-2.269531 -2.664,0 z m 0,0"
     style="fill:#7373de;fill-opacity:1;fill-rule:evenodd;stroke:none" />
  <path
     inkscape:connector-curvature="0"
     id="path4388"
     d="m 12.816,9.488281 2.664,0 0,-2.269531 -2.664,0 z m 0,0"
     style="fill:#7373de;fill-opacity:1;fill-rule:evenodd;stroke:none" />
  <path
     inkscape:connector-curvature="0"
     id="path4390"
     d="m 12.816,6.085938 2.664,0 0,-2.269532 -2.664,0 z m 0,0"
     style="fill:#7373de;fill-opacity:1;fill-rule:evenodd;stroke:none" />
  <path
     inkscape:connector-curvature="0"
     id="path4392"
     d="m 50.256,6.085938 2.664,0 0,-2.269532 -2.664,0 z m 0,0"
     style="fill:#7373de;fill-opacity:1;fill-rule:evenodd;stroke:none" />
  <path
     inkscape:connector-curvature="0"
     id="path4394"
     d="m 50.256,9.488281 2.664,0 0,-2.269531 -2.664,0 z m 0,0"
     style="fill:#7373de;fill-opacity:1;fill-rule:evenodd;stroke:none" />
  <path
     inkscape:connector-curvature="0"
     id="path4396"
     d="m 50.256,12.890625 2.664,0 0,-2.269531 -2.664,0 z m 0,0"
     style="fill:#7373de;fill-opacity:1;fill-rule:evenodd;stroke:none" />
  <path
     inkscape:connector-curvature="0"
     id="path4398"
     d="m 50.256,16.292969 2.664,0 0,-2.269531 -2.664,0 z m 0,0"
     style="fill:#7373de;fill-opacity:1;fill-rule:evenodd;stroke:none" />
  <path
     inkscape:connector-curvature="0"
     id="path4400"
     d="m 50.256,19.695312 2.664,0 0,-2.269531 -2.664,0 z m 0,0"
     style="fill:#7373de;fill-opacity:1;fill-rule:evenodd;stroke:none" />
  <path
     inkscape:connector-curvature="0"
     id="path4402"
     d="m 50.256,23.09375 2.664,0 0,-2.269531 -2.664,0 z m 0,0"
     style="fill:#7373de;fill-opacity:1;fill-rule:evenodd;stroke:none" />
  <path
     inkscape:connector-curvature="0"
     id="path4404"
     d="m 50.256,26.496094 2.664,0 0,-2.269532 -2.664,0 z m 0,0"
     style="fill:#7373de;fill-opacity:1;fill-rule:evenodd;stroke:none" />
  <path
     inkscape:connector-curvature="0"
     id="path4406"
     d="m 50.256,29.898438 2.664,0 0,-2.269532 -2.664,0 z m 0,0"
     style="fill:#7373de;fill-opacity:1;fill-rule:evenodd;stroke:none" />
  <path
     inkscape:connector-curvature="0"
     id="path4408"
     d="m 50.256,33.300781 2.664,0 0,-2.269531 -2.664,0 z m 0,0"
     style="fill:#7373de;fill-opacity:1;fill-rule:evenodd;stroke:none" />
  <path
     inkscape:connector-curvature="0"
     id="path4410"
     d="m 50.256,36.703125 2.664,0 0,-2.269531 -2.664,0 z m 0,0"
     style="fill:#7373de;fill-opacity:1;fill-rule:evenodd;stroke:none" />
  <path
     inkscape:connector-curvature="0"
     id="path4412"
     d="m 50.256,40.101562 2.664,0 0,-2.269531 -2.664,0 z m 0,0"
     style="fill:#7373de;fill-opacity:1;fill-rule:evenodd;stroke:none" />
  <path
     inkscape:connector-curvature="0"
     id="path4414"
     d="m 50.256,43.503906 2.664,0 0,-2.269531 -2.664,0 z m 0,0"
     style="fill:#7373de;fill-opacity:1;fill-rule:evenodd;stroke:none" />
  <path
     inkscape:connector-curvature="0"
     id="path4416"
     d="m 50.256,46.90625 2.664,0 0,-2.269531 -2.664,0 z m 0,0"
     style="fill:#7373de;fill-opacity:1;fill-rule:evenodd;stroke:none" />
  <path
     inkscape:connector-curvature="0"
     id="path4418"
     d="m 50.256,50.308594 2.664,0 0,-2.269532 -2.664,0 z m 0,0"
     style="fill:#7373de;fill-opacity:1;fill-rule:evenodd;stroke:none" />
  <path
     inkscape:connector-curvature="0"
     id="path4420"
     d="m 50.256,53.710938 2.664,0 0,-2.269532 -2.664,0 z m 0,0"
     style="fill:#7373de;fill-opacity:1;fill-rule:evenodd;stroke:none" />
  <path
     inkscape:connector-curvature="0"
     id="path4422"
     d="m 50.256,57.109375 2.664,0 0,-2.269531 -2.664,0 z m 0,0"
     style="fill:#7373de;fill-opacity:1;fill-rule:evenodd;stroke:none" />
  <path
     inkscape:connector-curvature="0"
     id="path4424"
     d="m 50.256,60.511719 2.664,0 0,-2.269531 -2.664,0 z m 0,0"
     style="fill:#7373de;fill-opacity:1;fill-rule:evenodd;stroke:none" />
  <path
     inkscape:connector-curvature="0"
     id="path4426"
     d="m 48.453125,65.831099 2.269531,0 0,-2.711099 -2.269531,0 z m 0,0"
     style="fill:#7373de;fill-opacity:1;fill-rule:evenodd;stroke:none" />
  <path
     inkscape:connector-curvature="0"
     id="path4428"
     d="m 43.636719,65.856 2.269531,0 0,-2.711099 -2.269531,0 z m 0,0"
     style="fill:#7373de;fill-opacity:1;fill-rule:evenodd;stroke:none" />
  <path
     inkscape:connector-curvature="0"
     id="path4430"
     d="m 40.234375,65.856 2.269531,0 0,-2.711099 -2.269531,0 z m 0,0"
     style="fill:#7373de;fill-opacity:1;fill-rule:evenodd;stroke:none" />
  <path
     inkscape:connector-curvature="0"
     id="path4432"
     d="m 36.832031,65.856 2.269531,0 0,-2.711099 -2.269531,0 z m 0,0"
     style="fill:#7373de;fill-opacity:1;fill-rule:evenodd;stroke:none" />
  <path
     inkscape:connector-curvature="0"
     id="path4434"
     d="m 33.429688,65.856 2.269531,0 0,-2.711099 -2.269531,0 z m 0,0"
     style="fill:#7373de;fill-opacity:1;fill-rule:evenodd;stroke:none" />
  <path
     inkscape:connector-curvature="0"
     id="path4436"
     d="m 30.03125,65.856 2.269531,0 0,-2.711099 -2.269531,0 z m 0,0"
     style="fill:#7373de;fill-opacity:1;fill-rule:evenodd;stroke:none" />
  <path
     inkscape:connector-curvature="0"
     id="path4438"
     d="m 26.628906,65.856 2.269532,0 0,-2.711099 -2.269532,0 z m 0,0"
     style="fill:#7373de;fill-opacity:1;fill-rule:evenodd;stroke:none" />
  <path
     inkscape:connector-curvature="0"
     id="path4440"
     d="m 23.226562,65.856 2.269532,0 0,-2.711099 -2.269532,0 z m 0,0"
     style="fill:#7373de;fill-opacity:1;fill-rule:evenodd;stroke:none" />
  <path
     inkscape:connector-curvature="0"
     id="path4442"
     d="m 19.824219,65.856 2.269531,0 0,-2.711099 -2.269531,0 z m 0,0"
     style="fill:#7373de;fill-opacity:1;fill-rule:evenodd;stroke:none" />
  <path
     inkscape:connector-curvature="0"
     id="path4444"
     d="m 15.007812,65.856 2.269532,0 0,-2.711099 -2.269532,0 z m 0,0"
     style="fill:#7373de;fill-opacity:1;fill-rule:evenodd;stroke:none" />
  <path
     inkscape:connector-curvature="0"
     id="path4446"
     d="m 23.226534,7.22267 0,-1.70316"
     style="fill:none;stroke:#7373de;stroke-width:1.70063996;stroke-linecap:round;stroke-linejoin:miter;stroke-miterlimit:10;stroke-opacity:1" />
  <path
     inkscape:connector-curvature="0"
     id="path4448"
     d="m 23.226534,7.22267 -0.56664,0"
     style="fill:none;stroke:#7373de;stroke-width:1.70063996;stroke-linecap:round;stroke-linejoin:miter;stroke-miterlimit:10;stroke-opacity:1" />
  <path
     inkscape:connector-curvature="0"
     id="path4450"
     d="m 22.660182,7.22267 0,-1.70316"
     style="fill:none;stroke:#7373de;stroke-width:1.70063996;stroke-linecap:round;stroke-linejoin:miter;stroke-miterlimit:10;stroke-opacity:1" />
  <path
     inkscape:connector-curvature="0"
     id="path4452"
     d="m 22.660182,5.51951 0.56664,0"
     style="fill:none;stroke:#7373de;stroke-width:1.70063996;stroke-linecap:round;stroke-linejoin:miter;stroke-miterlimit:10;stroke-opacity:1" />
  <path
     inkscape:connector-curvature="0"
     id="path4454"
     d="m 23.226534,5.523398 -0.56664,0"
     style="fill:none;stroke:#7373de;stroke-width:1.70063996;stroke-linecap:round;stroke-linejoin:miter;stroke-miterlimit:10;stroke-opacity:1" />
  <path
     inkscape:connector-curvature="0"
     id="path4456"
     d="m 27.195318,5.51951 0,1.70316"
     style="fill:none;stroke:#7373de;stroke-width:1.70063996;stroke-linecap:round;stroke-linejoin:miter;stroke-miterlimit:10;stroke-opacity:1" />
  <path
     inkscape:connector-curvature="0"
     id="path4458"
     d="m 27.195318,7.22267 -0.56664,0"
     style="fill:none;stroke:#7373de;stroke-width:1.70063996;stroke-linecap:round;stroke-linejoin:miter;stroke-miterlimit:10;stroke-opacity:1" />
  <path
     inkscape:connector-curvature="0"
     id="path4460"
     d="m 26.628894,7.22267 0,-1.70316"
     style="fill:none;stroke:#7373de;stroke-width:1.70063996;stroke-linecap:round;stroke-linejoin:miter;stroke-miterlimit:10;stroke-opacity:1" />
  <path
     inkscape:connector-curvature="0"
     id="path4462"
     d="m 26.628894,5.51951 0.56664,0"
     style="fill:none;stroke:#7373de;stroke-width:1.70063996;stroke-linecap:round;stroke-linejoin:miter;stroke-miterlimit:10;stroke-opacity:1" />
  <path
     inkscape:connector-curvature="0"
     id="path4464"
     d="m 27.195318,5.523398 -0.56664,0"
     style="fill:none;stroke:#7373de;stroke-width:1.70063996;stroke-linecap:round;stroke-linejoin:miter;stroke-miterlimit:10;stroke-opacity:1" />
  <path
     inkscape:connector-curvature="0"
     id="path4466"
     d="m 31.16403,5.51951 0,1.70316"
     style="fill:none;stroke:#7373de;stroke-width:1.70063996;stroke-linecap:round;stroke-linejoin:miter;stroke-miterlimit:10;stroke-opacity:1" />
  <path
     inkscape:connector-curvature="0"
     id="path4468"
     d="m 31.16403,7.22267 -0.56664,0"
     style="fill:none;stroke:#7373de;stroke-width:1.70063996;stroke-linecap:round;stroke-linejoin:miter;stroke-miterlimit:10;stroke-opacity:1" />
  <path
     inkscape:connector-curvature="0"
     id="path4470"
     d="m 30.597678,7.22267 0,-1.70316"
     style="fill:none;stroke:#7373de;stroke-width:1.70063996;stroke-linecap:round;stroke-linejoin:miter;stroke-miterlimit:10;stroke-opacity:1" />
  <path
     inkscape:connector-curvature="0"
     id="path4472"
     d="m 30.597678,5.51951 0.56664,0"
     style="fill:none;stroke:#7373de;stroke-width:1.70063996;stroke-linecap:round;stroke-linejoin:miter;stroke-miterlimit:10;stroke-opacity:1" />
  <path
     inkscape:connector-curvature="0"
     id="path4474"
     d="m 31.16403,5.523398 -0.56664,0"
     style="fill:none;stroke:#7373de;stroke-width:1.70063996;stroke-linecap:round;stroke-linejoin:miter;stroke-miterlimit:10;stroke-opacity:1" />
  <path
     inkscape:connector-curvature="0"
     id="path4476"
     d="m 35.132814,5.51951 0,1.70316"
     style="fill:none;stroke:#7373de;stroke-width:1.70063996;stroke-linecap:round;stroke-linejoin:miter;stroke-miterlimit:10;stroke-opacity:1" />
  <path
     inkscape:connector-curvature="0"
     id="path4478"
     d="m 35.132814,7.22267 -0.56664,0"
     style="fill:none;stroke:#7373de;stroke-width:1.70063996;stroke-linecap:round;stroke-linejoin:miter;stroke-miterlimit:10;stroke-opacity:1" />
  <path
     inkscape:connector-curvature="0"
     id="path4480"
     d="m 34.56639,7.22267 0,-1.70316"
     style="fill:none;stroke:#7373de;stroke-width:1.70063996;stroke-linecap:round;stroke-linejoin:miter;stroke-miterlimit:10;stroke-opacity:1" />
  <path
     inkscape:connector-curvature="0"
     id="path4482"
     d="m 34.56639,5.51951 0.56664,0"
     style="fill:none;stroke:#7373de;stroke-width:1.70063996;stroke-linecap:round;stroke-linejoin:miter;stroke-miterlimit:10;stroke-opacity:1" />
  <path
     inkscape:connector-curvature="0"
     id="path4484"
     d="m 35.132814,5.523398 -0.56664,0"
     style="fill:none;stroke:#7373de;stroke-width:1.70063996;stroke-linecap:round;stroke-linejoin:miter;stroke-miterlimit:10;stroke-opacity:1" />
  <path
     inkscape:connector-curvature="0"
     id="path4486"
     d="m 39.101598,5.51951 0,1.70316"
     style="fill:none;stroke:#7373de;stroke-width:1.70063996;stroke-linecap:round;stroke-linejoin:miter;stroke-miterlimit:10;stroke-opacity:1" />
  <path
     inkscape:connector-curvature="0"
     id="path4488"
     d="m 39.101598,7.22267 -0.56664,0"
     style="fill:none;stroke:#7373de;stroke-width:1.70063996;stroke-linecap:round;stroke-linejoin:miter;stroke-miterlimit:10;stroke-opacity:1" />
  <path
     inkscape:connector-curvature="0"
     id="path4490"
     d="m 38.535174,7.22267 0,-1.70316"
     style="fill:none;stroke:#7373de;stroke-width:1.70063996;stroke-linecap:round;stroke-linejoin:miter;stroke-miterlimit:10;stroke-opacity:1" />
  <path
     inkscape:connector-curvature="0"
     id="path4492"
     d="m 38.535174,5.51951 0.56664,0"
     style="fill:none;stroke:#7373de;stroke-width:1.70063996;stroke-linecap:round;stroke-linejoin:miter;stroke-miterlimit:10;stroke-opacity:1" />
  <path
     inkscape:connector-curvature="0"
     id="path4494"
     d="m 39.101598,5.523398 -0.56664,0"
     style="fill:none;stroke:#7373de;stroke-width:1.70063996;stroke-linecap:round;stroke-linejoin:miter;stroke-miterlimit:10;stroke-opacity:1" />
  <path
     inkscape:connector-curvature="0"
     id="path4496"
     d="m 43.07031,5.51951 0,1.70316"
     style="fill:none;stroke:#7373de;stroke-width:1.70063996;stroke-linecap:round;stroke-linejoin:miter;stroke-miterlimit:10;stroke-opacity:1" />
  <path
     inkscape:connector-curvature="0"
     id="path4498"
     d="m 43.07031,7.22267 -0.56664,0"
     style="fill:none;stroke:#7373de;stroke-width:1.70063996;stroke-linecap:round;stroke-linejoin:miter;stroke-miterlimit:10;stroke-opacity:1" />
  <path
     inkscape:connector-curvature="0"
     id="path4500"
     d="m 42.503886,7.22267 0,-1.70316"
     style="fill:none;stroke:#7373de;stroke-width:1.70063996;stroke-linecap:round;stroke-linejoin:miter;stroke-miterlimit:10;stroke-opacity:1" />
  <path
     inkscape:connector-curvature="0"
     id="path4502"
     d="m 42.503886,5.51951 0.56664,0"
     style="fill:none;stroke:#7373de;stroke-width:1.70063996;stroke-linecap:round;stroke-linejoin:miter;stroke-miterlimit:10;stroke-opacity:1" />
  <path
     inkscape:connector-curvature="0"
     id="path4504"
     d="m 43.07031,5.523398 -0.56664,0"
     style="fill:none;stroke:#7373de;stroke-width:1.70063996;stroke-linecap:round;stroke-linejoin:miter;stroke-miterlimit:10;stroke-opacity:1" />
  <path
     inkscape:connector-curvature="0"
     id="path4506"
     d="m 53.332031,77.703125 2.269531,0 0,-2.269531 -2.269531,0 z m 0,0"
     style="fill:#7373de;fill-opacity:1;fill-rule:evenodd;stroke:none" />
  <path
     inkscape:connector-curvature="0"
     id="path4508"
     d="m 53.332031,81.957031 2.269531,0 0,-2.269531 -2.269531,0 z m 0,0"
     style="fill:#7373de;fill-opacity:1;fill-rule:evenodd;stroke:none" />
  <path
     inkscape:connector-curvature="0"
     id="path4510"
     d="m 10.132812,81.957031 2.269532,0 0,-2.269531 -2.269532,0 z m 0,0"
     style="fill:#7373de;fill-opacity:1;fill-rule:evenodd;stroke:none" />
  <path
     inkscape:connector-curvature="0"
     id="path4512"
     d="m 10.132812,77.703125 2.269532,0 0,-2.269531 -2.269532,0 z m 0,0"
     style="fill:#7373de;fill-opacity:1;fill-rule:evenodd;stroke:none" />
  <path
     inkscape:connector-curvature="0"
     id="path4514"
     d="m 17.046875,77.847656 2.835937,0 0,-3.117187 -2.835937,0 z m 0,0"
     style="fill:#7373de;fill-opacity:1;fill-rule:evenodd;stroke:none" />
  <path
     inkscape:connector-curvature="0"
     id="path4516"
     d="m 17.046875,82.664062 2.835937,0 0,-3.117187 -2.835937,0 z m 0,0"
     style="fill:#7373de;fill-opacity:1;fill-rule:evenodd;stroke:none" />
  <path
     inkscape:connector-curvature="0"
     id="path4518"
     d="m 45.847656,82.664062 2.835938,0 0,-3.117187 -2.835938,0 z m 0,0"
     style="fill:#7373de;fill-opacity:1;fill-rule:evenodd;stroke:none" />
  <path
     inkscape:connector-curvature="0"
     id="path4520"
     d="m 45.847656,77.847656 2.835938,0 0,-3.117187 -2.835938,0 z m 0,0"
     style="fill:#7373de;fill-opacity:1;fill-rule:evenodd;stroke:none" />
  <path
     inkscape:connector-curvature="0"
     id="path4522"
     d="m 2.648438,12.105469 2.835937,0 0,-3.117188 -2.835937,0 z m 0,0"
     style="fill:#7373de;fill-opacity:1;fill-rule:evenodd;stroke:none" />
  <path
     inkscape:connector-curvature="0"
     id="path4524"
     d="m 2.648438,7.285156 2.835937,0 0,-3.117187 -2.835937,0 z m 0,0"
     style="fill:#7373de;fill-opacity:1;fill-rule:evenodd;stroke:none" />
  <path
     inkscape:connector-curvature="0"
     id="path4526"
     d="m 37.535156,88.753906 3.117188,0 0,-2.835937 -3.117188,0 z m 0,0"
     style="fill:#7373de;fill-opacity:1;fill-rule:evenodd;stroke:none" />
  <path
     inkscape:connector-curvature="0"
     id="path4528"
     d="m 42.355469,88.753906 3.117187,0 0,-2.835937 -3.117187,0 z m 0,0"
     style="fill:#7373de;fill-opacity:1;fill-rule:evenodd;stroke:none" />
</svg>
